<?xml version="1.0" encoding="UTF-8"?>
<svg width="20px" height="20px" viewBox="0 0 20 20" version="1.1" xmlns="http://www.w3.org/2000/svg" xmlns:xlink="http://www.w3.org/1999/xlink">
    <!-- Generator: Sketch 59.1 (86144) - https://sketch.com -->
    <title>Artboard</title>
    <desc>Created with Sketch.</desc>
    <g id="Artboard" stroke="none" stroke-width="1" fill="none" fill-rule="evenodd">
        <path d="M12.0958437,2.5382075 C12.2942053,2.33607145 12.586571,2.25931727 12.857795,2.33817393 C14.913438,2.78757383 16.7586738,3.9206908 18.095802,5.55471382 L18.095802,5.55471382 L18.095802,5.6322208 L18.1497227,5.70197709 C19.5017741,8.53504194 19.7692639,11.0952857 19.9448722,13.5893636 L19.9984311,14.3750087 C20.0125239,14.5969793 19.9311634,14.8143446 19.7750455,14.9718125 C18.1840551,16.5801012 16.0636068,17.5476603 13.812961,17.6923077 L13.812961,17.6923077 L13.6930588,17.682349 C13.5354282,17.6566631 13.3885349,17.5820891 13.2737544,17.4675374 C13.1267392,17.322544 13.0435204,17.1243721 13.0426658,16.9172378 L13.0426658,16.9172378 L13.0426658,16.142168 C11.0159063,16.6192485 8.90706416,16.6192485 6.88030464,16.142168 L6.88030464,16.142168 L6.88030464,16.9172378 C6.87945005,17.1243721 6.79623127,17.322544 6.64921609,17.4675374 C6.50574043,17.6107271 6.31208862,17.6914515 6.11000949,17.6923077 L6.11000949,17.6923077 L5.77678248,17.6602573 C3.67351205,17.4192369 1.71224444,16.4582879 0.22495453,14.933059 C0.0688366321,14.7755911 -0.0125238884,14.5582258 0.00156893584,14.3362552 C0.163330918,11.6312615 0.332795851,8.80225649 1.82716844,5.70197709 L1.82716844,5.70197709 L1.88108911,5.6322208 L1.88108911,5.6322208 L1.88108911,5.55471382 C3.21821732,3.9206908 5.06345314,2.78757383 7.11909613,2.33817393 C7.52434593,2.25389703 7.92336402,2.50685327 8.02275416,2.91104506 C8.1221443,3.31523685 7.88638888,3.72622398 7.48883781,3.84180945 C5.78896443,4.20851403 4.25818022,5.13267773 3.1366702,6.46929624 C2.09239525,8.86745689 1.54461786,11.4545408 1.52675334,14.0727315 C2.59954507,15.0795295 3.93575464,15.7571535 5.37822909,16.0259075 L5.37822909,16.0259075 L5.37822909,15.6306219 C4.4334328,15.2598035 3.54829861,14.7505043 2.75152263,14.1192357 C2.41756615,13.8516986 2.36238649,13.3624137 2.6282754,13.0263872 C2.89416432,12.6903607 3.38043509,12.634839 3.71439157,12.902376 C5.50797766,14.2702172 7.71182581,14.9811325 9.96148524,14.9175576 C12.2294661,14.9936332 14.4543805,14.2820642 16.2624996,12.902376 C16.4785315,12.7293099 16.7699142,12.6853563 17.0268865,12.7870721 C17.2838588,12.8887879 17.4673806,13.12072 17.508321,13.3955019 C17.5492614,13.6702838 17.4414005,13.9461696 17.2253685,14.1192357 C16.4231034,14.7506948 15.5328655,15.2599439 14.5832562,15.6306219 L14.5832562,15.6306219 L14.5832562,16.0259075 C16.0257306,15.7571535 17.3619402,15.0795295 18.4347319,14.0727315 C18.421728,11.4556174 17.8792018,8.86857789 16.8402209,6.46929624 C15.7187109,5.13267773 14.1879267,4.20851403 12.4880533,3.84180945 C12.211577,3.78431263 11.9885123,3.5792388 11.9067116,3.30735455 C11.8249108,3.0354703 11.897482,2.74034355 12.0958437,2.5382075 Z M7.43491715,8.49997925 C8.74038757,8.59121338 9.73153945,9.71964124 9.66107013,11.0344577 C9.73141219,12.347819 8.73920624,13.4739924 7.43491715,13.5611854 C6.12755819,13.4780426 5.13084127,12.3506501 5.20106121,11.0344577 C5.13072655,9.71682012 6.12637595,8.58718062 7.43491715,8.49997925 Z M12.4880533,8.49997925 C13.7965945,8.58718062 14.7922439,9.71682012 14.7219093,11.0344577 C14.7921292,12.3506501 13.7954123,13.4780426 12.4880533,13.5611854 C11.1837642,13.4739924 10.1915583,12.347819 10.2619004,11.0344577 C10.191431,9.71964124 11.1825829,8.59121338 12.4880533,8.49997925 Z M7.43491715,10.050119 C7.05747252,10.050119 6.74165151,10.5074102 6.74165151,11.0344577 C6.74165151,11.5615052 7.06517547,12.0110457 7.43491715,12.0110457 C7.80465882,12.0110457 8.12047983,11.5615052 8.12047983,11.0344577 C8.12047983,10.4996595 7.81236177,10.050119 7.43491715,10.050119 Z M12.4880533,10.050119 C12.1183117,10.050119 11.8024907,10.5074102 11.8024907,11.0344577 C11.8024907,11.5615052 12.1183117,12.0110457 12.4880533,12.0110457 C12.865498,12.0110457 13.181319,11.5692559 13.181319,11.0344577 C13.181319,10.4996595 12.857795,10.050119 12.4880533,10.050119 Z M9.96148524,4.41536114 C11.8399928,4.36602687 13.7034671,4.76440331 15.399769,5.57796591 C15.5818685,5.67223901 15.7191638,5.83559377 15.7813162,6.03193285 C15.8434686,6.22827193 15.8253614,6.44143208 15.7309959,6.62431021 C15.5983483,6.8819431 15.3337984,7.04345144 15.0454332,7.04284962 C14.9216081,7.04095549 14.8000618,7.00905121 14.6910975,6.94983955 C13.2127256,6.25417647 11.5928241,5.91703851 9.96148524,5.96550084 C8.33014639,5.91703851 6.71024485,6.25417647 5.23187301,6.94983955 C4.8553628,7.14876026 4.3898769,7.00304477 4.19197456,6.62431021 C4.09760909,6.44143208 4.07950193,6.22827193 4.14165431,6.03193285 C4.20380669,5.83559377 4.34110202,5.67223901 4.52320147,5.57796591 C6.21950339,4.76440331 8.08297771,4.36602687 9.96148524,4.41536114 Z" id="Combined-Shape" fill="#000000" fill-rule="nonzero"></path>
    </g>
</svg>