<?xml version="1.0" encoding="UTF-8"?>
<svg width="94px" height="28px" viewBox="0 0 94 28" version="1.1" xmlns="http://www.w3.org/2000/svg" xmlns:xlink="http://www.w3.org/1999/xlink">
    <!-- Generator: Sketch 59.1 (86144) - https://sketch.com -->
    <title>logo / default</title>
    <desc>Created with Sketch.</desc>
    <g id="🎨-Design-System" stroke="none" stroke-width="1" fill="none" fill-rule="evenodd">
        <g id="Elements" transform="translate(-120.000000, -696.000000)">
            <g id="logo-/-default" transform="translate(120.000000, 691.000000)">
                <g id="spart-logo" transform="translate(0.000000, 5.000000)">
                    <path d="M42.12,8.544 C41.64,7.68 41.032,7.168 40.584,6.88 C39.816,6.368 39.048,6.176 38.088,6.176 C36.424,6.176 35.4,6.816 34.792,7.456 C34.088,8.192 33.672,9.248 33.672,10.336 C33.672,11.2 33.928,11.936 34.632,12.608 C35.144,13.12 35.88,13.472 36.488,13.76 L37.64,14.304 C38.152,14.528 38.6,14.752 38.984,15.136 C39.272,15.456 39.4,15.776 39.4,16.16 C39.4,16.544 39.208,16.96 38.952,17.216 C38.664,17.504 38.152,17.664 37.672,17.664 C36.936,17.664 36.488,17.344 36.296,17.152 C36.008,16.896 35.72,16.32 35.56,15.872 L33,17.088 C33.32,18.048 33.96,18.976 34.728,19.552 C35.688,20.288 36.776,20.416 37.64,20.416 C39.048,20.416 40.36,20.064 41.416,18.912 C42.152,18.112 42.6,17.056 42.6,15.84 C42.6,14.912 42.344,14.08 41.608,13.344 C41.096,12.8 40.424,12.448 39.72,12.096 L38.12,11.296 C37.448,10.944 37.256,10.88 37.064,10.752 C36.776,10.56 36.616,10.336 36.616,9.984 C36.616,9.696 36.744,9.44 36.904,9.28 C37.096,9.088 37.416,8.928 37.864,8.928 C38.856,8.928 39.464,9.568 39.784,10.08 L42.12,8.544 Z M47.9233,18.432 C49.3313,20.16 51.2193,20.416 51.9553,20.416 C55.1552,20.416 58.4832,17.728 58.4832,13.184 C58.4832,8.896 55.4753,6.176 51.9233,6.176 C50.5793,6.176 49.0752,6.624 47.9233,8 L47.9233,6.528 L44.7872,6.528 L44.7872,27.328 L47.9233,27.328 L47.9233,18.432 Z M51.5392,8.992 C53.8113,8.992 55.2833,10.912 55.2833,13.312 C55.2833,15.648 53.8113,17.6 51.5392,17.6 C49.5552,17.6 47.7313,16.16 47.7313,13.344 C47.7313,10.4 49.5552,8.992 51.5392,8.992 Z M70.652,8.096 C69.372,6.432 67.644,6.176 66.652,6.176 C63.1,6.176 60.092,8.864 60.092,13.248 C60.092,16.96 62.46,20.416 66.62,20.416 C67.58,20.416 69.276,20.192 70.652,18.592 L70.652,20 L73.788,20 L73.788,6.528 L70.652,6.528 L70.652,8.096 Z M67.036,8.992 C69.02,8.992 70.844,10.4 70.844,13.344 C70.844,16.16 69.02,17.6 67.036,17.6 C64.764,17.6 63.292,15.648 63.292,13.312 C63.292,10.912 64.764,8.992 67.036,8.992 Z M76.8047,20 L79.9407,20 L79.9407,13.024 C79.9407,12.128 79.9407,10.848 80.8047,9.92 C81.4127,9.28 82.0847,9.184 82.7567,9.184 C83.0767,9.184 83.6527,9.216 84.3567,9.664 L85.6367,6.816 C84.7727,6.304 83.9407,6.176 83.1727,6.176 C82.4687,6.176 81.8607,6.272 81.2527,6.624 C80.8047,6.88 80.2927,7.328 79.9407,7.744 L79.9407,6.528 L76.8047,6.528 L76.8047,20 Z M93.6867,9.408 L93.6867,6.528 L91.2867,6.528 L91.2867,1.6 L88.1507,1.6 L88.1507,6.528 L86.8387,6.528 L86.8387,9.408 L88.1507,9.408 L88.1507,20 L91.2867,20 L91.2867,9.408 L93.6867,9.408 Z" id="Shape" fill="#1B1B1B" fill-rule="nonzero"></path>
                    <g id="Group">
                        <path d="M21.2697185,21.2773328 C25.5225526,18.3263807 27.4323787,12.7811545 25.5787626,7.6883824 C23.3725566,1.62675425 16.6699884,-1.49866784 10.6083895,0.707538222 C8.25529279,1.56397424 6.34467834,3.09799628 5.01666231,5.00913633 C0.763845717,7.96008841 -1.14606501,13.5051686 0.707568555,18.5979407 C2.91383885,24.6597148 9.61630483,27.7851369 15.6779184,25.5787849 C18.0310004,24.7223488 19.9417025,23.1883268 21.2697185,21.2773328 Z M18.5979185,22.6587848 C19.5667745,22.3061948 20.4605865,21.8387028 21.2697185,21.2773328 C23.3627746,18.2653527 24.0085326,14.3169286 22.6587626,10.6083825 C20.4525565,4.54675432 13.7500467,1.42133224 7.68838938,3.6275383 C6.71953335,3.98027431 5.82570673,4.44776632 5.01666231,5.00913633 C2.92365005,8.02097041 2.27776064,11.9693945 3.62757447,15.6779406 C5.83383893,21.7397148 12.5363195,24.8651369 18.5979185,22.6587848 Z" id="Shape" fill="#FFB5A4"></path>
                        <path d="M7.68838938,3.6275383 C6.71954795,3.98027431 5.82570673,4.44776632 5.01666231,5.00913633 C2.92365005,8.02097041 2.27776064,11.9693945 3.62757447,15.6779406 C5.83383893,21.7397148 12.5363195,24.8651369 18.5979185,22.6587848 C19.5667745,22.3061948 20.4605865,21.8387028 21.2697185,21.2773328 C23.3627746,18.2653527 24.0085326,14.3169286 22.6587626,10.6083825 C20.4525565,4.54675432 13.7500467,1.42133224 7.68838938,3.6275383 Z M8.4321572,13.9408326 L13.7043779,6.93283238 L13.1771573,11.6048325 L17.9222304,11.6048325 L12.6499367,18.6128327 L13.1771573,13.9408326 L8.4321572,13.9408326 Z" id="Shape" fill="#F97353"></path>
                    </g>
                </g>
            </g>
        </g>
    </g>
</svg>