<svg width="84" height="41" viewBox="0 0 84 41" fill="none" xmlns="http://www.w3.org/2000/svg">
<path d="M32.208 19.544C31.728 18.68 31.12 18.168 30.672 17.88C29.904 17.368 29.136 17.176 28.176 17.176C26.512 17.176 25.488 17.816 24.88 18.456C24.176 19.192 23.76 20.248 23.76 21.336C23.76 22.2 24.016 22.936 24.72 23.608C25.232 24.12 25.968 24.472 26.576 24.76L27.728 25.304C28.24 25.528 28.688 25.752 29.072 26.136C29.36 26.456 29.488 26.776 29.488 27.16C29.488 27.544 29.296 27.96 29.04 28.216C28.752 28.504 28.24 28.664 27.76 28.664C27.024 28.664 26.576 28.344 26.384 28.152C26.096 27.896 25.808 27.32 25.648 26.872L23.088 28.088C23.408 29.048 24.048 29.976 24.816 30.552C25.776 31.288 26.864 31.416 27.728 31.416C29.136 31.416 30.448 31.064 31.504 29.912C32.24 29.112 32.688 28.056 32.688 26.84C32.688 25.912 32.432 25.08 31.696 24.344C31.184 23.8 30.512 23.448 29.808 23.096L28.208 22.296C27.536 21.944 27.344 21.88 27.152 21.752C26.864 21.56 26.704 21.336 26.704 20.984C26.704 20.696 26.832 20.44 26.992 20.28C27.184 20.088 27.504 19.928 27.952 19.928C28.944 19.928 29.552 20.568 29.872 21.08L32.208 19.544ZM38.0113 29.432C39.4193 31.16 41.3073 31.416 42.0433 31.416C45.2432 31.416 48.5712 28.728 48.5712 24.184C48.5712 19.896 45.5633 17.176 42.0113 17.176C40.6673 17.176 39.1632 17.624 38.0113 19V17.528H34.8752V38.328H38.0113V29.432ZM41.6272 19.992C43.8993 19.992 45.3713 21.912 45.3713 24.312C45.3713 26.648 43.8993 28.6 41.6272 28.6C39.6432 28.6 37.8193 27.16 37.8193 24.344C37.8193 21.4 39.6432 19.992 41.6272 19.992ZM60.74 19.096C59.46 17.432 57.732 17.176 56.74 17.176C53.188 17.176 50.18 19.864 50.18 24.248C50.18 27.96 52.548 31.416 56.708 31.416C57.668 31.416 59.364 31.192 60.74 29.592V31H63.876V17.528H60.74V19.096ZM57.124 19.992C59.108 19.992 60.932 21.4 60.932 24.344C60.932 27.16 59.108 28.6 57.124 28.6C54.852 28.6 53.38 26.648 53.38 24.312C53.38 21.912 54.852 19.992 57.124 19.992ZM66.8927 31H70.0287V24.024C70.0287 23.128 70.0287 21.848 70.8927 20.92C71.5007 20.28 72.1727 20.184 72.8447 20.184C73.1647 20.184 73.7407 20.216 74.4447 20.664L75.7247 17.816C74.8607 17.304 74.0287 17.176 73.2607 17.176C72.5567 17.176 71.9487 17.272 71.3407 17.624C70.8927 17.88 70.3807 18.328 70.0287 18.744V17.528H66.8927V31ZM83.7747 20.408V17.528H81.3747V12.6H78.2387V17.528H76.9267V20.408H78.2387V31H81.3747V20.408H83.7747Z" fill="#1B1B1B"/>
<path fill-rule="evenodd" clip-rule="evenodd" d="M14.5683 29.5735C17.4812 27.5523 18.7893 23.7542 17.5197 20.266C16.0086 16.1142 11.4178 13.9735 7.26602 15.4846C5.65431 16.0712 4.34567 17.1219 3.43607 18.4309C0.523182 20.4521 -0.784976 24.2501 0.484636 27.7383C1.99578 31.8902 6.58651 34.0309 10.7383 32.5197C12.35 31.9331 13.6587 30.8824 14.5683 29.5735ZM12.7383 30.5197C13.4019 30.2782 14.0141 29.958 14.5683 29.5735C16.0019 27.5105 16.4442 24.8061 15.5197 22.266C14.0086 18.1142 9.41784 15.9735 5.26602 17.4846C4.60242 17.7262 3.99021 18.0464 3.43607 18.4309C2.0025 20.4938 1.56011 23.1982 2.48464 25.7383C3.99578 29.8902 8.58652 32.0309 12.7383 30.5197Z" fill="#FFB5A4" style="mix-blend-mode:multiply"/>
<path fill-rule="evenodd" clip-rule="evenodd" d="M5.26602 17.4846C4.60243 17.7262 3.99021 18.0464 3.43607 18.4309C2.0025 20.4938 1.56011 23.1982 2.48464 25.7383C3.99578 29.8902 8.58652 32.0309 12.7383 30.5197C13.4019 30.2782 14.0141 29.958 14.5683 29.5735C16.0019 27.5105 16.4442 24.8061 15.5197 22.266C14.0086 18.1142 9.41784 15.9735 5.26602 17.4846ZM5.77545 24.5485L9.38656 19.7485L9.02545 22.9485H12.2755L8.66434 27.7485L9.02545 24.5485H5.77545Z" fill="#F97353" style="mix-blend-mode:multiply"/>
</svg>
